<?xml version="1.0" standalone="no"?>
<!DOCTYPE svg PUBLIC "-//W3C//DTD SVG 20010904//EN"
 "http://www.w3.org/TR/2001/REC-SVG-20010904/DTD/svg10.dtd">
<svg version="1.0" xmlns="http://www.w3.org/2000/svg"
 width="430.000000pt" height="430.000000pt" viewBox="0 0 430.000000 430.000000"
 preserveAspectRatio="xMidYMid meet">
<metadata>
Created by potrace 1.13, written by Peter Selinger 2001-2015
</metadata>
<g transform="translate(0.000000,430.000000) scale(0.100000,-0.100000)"
fill="#000000" stroke="none">
<path d="M300 3650 l0 -350 350 0 350 0 0 350 0 350 -350 0 -350 0 0 -350z
m600 0 l0 -250 -250 0 -250 0 0 250 0 250 250 0 250 0 0 -250z"/>
<path d="M500 3650 l0 -150 150 0 150 0 0 150 0 150 -150 0 -150 0 0 -150z"/>
<path d="M1100 3900 l0 -100 100 0 100 0 0 100 0 100 -100 0 -100 0 0 -100z"/>
<path d="M1400 3950 l0 -50 50 0 50 0 0 50 0 50 -50 0 -50 0 0 -50z"/>
<path d="M1900 3950 l0 -50 50 0 50 0 0 -50 0 -50 -50 0 -50 0 0 -50 0 -50 50
0 50 0 0 50 0 50 50 0 50 0 0 -50 0 -50 50 0 50 0 0 50 0 50 -50 0 -50 0 0 50
0 50 -50 0 -50 0 0 50 0 50 -50 0 -50 0 0 -50z"/>
<path d="M2400 3900 l0 -100 50 0 50 0 0 100 0 100 -50 0 -50 0 0 -100z"/>
<path d="M2900 3950 l0 -50 -150 0 -150 0 0 -50 0 -50 150 0 150 0 0 -50 0
-50 -50 0 -50 0 0 -50 0 -50 -100 0 -100 0 0 -50 0 -50 -100 0 -100 0 0 100 0
100 -50 0 -50 0 0 -50 0 -50 -50 0 -50 0 0 -50 0 -50 -50 0 -50 0 0 50 0 50
-100 0 -100 0 0 -50 0 -50 -50 0 -50 0 0 -50 0 -50 -50 0 -50 0 0 -50 0 -50
-50 0 -50 0 0 50 0 50 -50 0 -50 0 0 50 0 50 -50 0 -50 0 0 50 0 50 50 0 50 0
0 50 0 50 50 0 50 0 0 -50 0 -50 50 0 50 0 0 50 0 50 50 0 50 0 0 50 0 50 -50
0 -50 0 0 50 0 50 -50 0 -50 0 0 -50 0 -50 -50 0 -50 0 0 -50 0 -50 -50 0 -50
0 0 -50 0 -50 -100 0 -100 0 0 50 0 50 -50 0 -50 0 0 -200 0 -200 50 0 50 0 0
50 0 50 50 0 50 0 0 -100 0 -100 100 0 100 0 0 -50 0 -50 150 0 150 0 0 -50 0
-50 50 0 50 0 0 -100 0 -100 -50 0 -50 0 0 50 0 50 -50 0 -50 0 0 -50 0 -50
-100 0 -100 0 0 -50 0 -50 -50 0 -50 0 0 -50 0 -50 50 0 50 0 0 -150 0 -150
50 0 50 0 0 150 0 150 50 0 c32 0 61 7 82 20 18 11 41 20 51 20 12 0 17 8 17
30 0 29 1 30 50 30 l50 0 0 50 0 50 50 0 50 0 0 -50 0 -50 50 0 c49 0 50 -1
50 -30 l0 -30 100 0 100 0 0 30 c0 29 1 30 50 30 l50 0 0 50 0 50 -50 0 -50 0
0 -50 0 -50 -50 0 -50 0 0 150 0 150 50 0 50 0 0 -50 0 -50 50 0 50 0 0 50 0
50 100 0 100 0 0 -50 0 -50 -50 0 -50 0 0 -100 0 -100 100 0 100 0 0 -100 0
-100 -30 0 -30 0 0 -100 0 -100 30 0 c29 0 30 -1 30 -50 l0 -50 150 0 150 0 0
50 0 50 50 0 50 0 0 -100 0 -100 50 0 50 0 0 50 0 50 100 0 100 0 0 100 0 100
-100 0 -100 0 0 50 0 50 100 0 100 0 0 50 0 50 50 0 50 0 0 -50 0 -50 50 0 50
0 0 50 0 50 50 0 50 0 0 -50 0 -50 50 0 50 0 0 -50 0 -50 -100 0 -100 0 0 -50
0 -50 -50 0 -50 0 0 -50 0 -50 50 0 50 0 0 -50 0 -50 -150 0 -150 0 0 -100 0
-100 -50 0 -50 0 0 50 0 50 -150 0 -150 0 0 -50 0 -50 -100 0 -100 0 0 -100 0
-100 50 0 50 0 0 -50 0 -50 -100 0 -100 0 0 51 0 51 -34 -21 c-18 -12 -41 -21
-50 -21 -11 0 -16 -9 -16 -30 0 -29 -1 -30 -50 -30 -49 0 -50 1 -50 30 l0 30
-150 0 -150 0 0 -30 c0 -29 -1 -30 -50 -30 -49 0 -50 1 -50 30 l0 30 -115 0
c-84 0 -124 4 -145 15 -33 17 -80 80 -80 107 0 13 -8 18 -30 18 -29 0 -30 1
-30 50 0 49 1 50 30 50 29 0 30 1 30 50 0 49 -1 50 -30 50 -29 0 -30 1 -30 50
l0 50 -50 0 -50 0 0 -50 0 -50 -50 0 -50 0 0 -50 0 -50 50 0 50 0 0 -50 0 -50
-50 0 -50 0 0 -50 0 -50 100 0 100 0 0 -50 0 -50 50 0 50 0 0 -50 0 -50 -100
0 -100 0 0 50 0 50 -50 0 -50 0 0 -100 0 -100 -50 0 -50 0 0 50 0 50 -50 0
-50 0 0 50 0 50 -50 0 -50 0 0 -50 0 -50 -50 0 -50 0 0 50 0 50 -50 0 -50 0 0
50 0 50 50 0 50 0 0 50 0 50 -50 0 -50 0 0 50 0 50 100 0 100 0 0 50 0 50 100
0 100 0 0 50 0 50 50 0 50 0 0 100 0 100 -50 0 -50 0 0 -50 0 -50 -100 0 -100
0 0 -50 0 -50 -50 0 -50 0 0 50 0 50 -50 0 -50 0 0 -50 0 -50 50 0 50 0 0 -50
0 -50 -50 0 -50 0 0 -50 0 -50 -50 0 -50 0 0 50 0 50 -50 0 -50 0 0 50 0 50
50 0 50 0 0 100 0 100 100 0 100 0 0 50 0 50 -50 0 -50 0 0 50 0 50 200 0 200
0 0 -50 0 -50 50 0 50 0 0 50 0 50 -50 0 -50 0 0 50 0 50 -300 0 -300 0 0 50
0 50 -100 0 -100 0 0 100 0 100 50 0 50 0 0 100 0 100 50 0 50 0 0 50 0 50
-50 0 -50 0 0 -50 0 -50 -100 0 -100 0 0 -50 0 -50 -50 0 -50 0 0 -300 0 -300
50 0 50 0 0 -50 0 -50 -50 0 -50 0 0 -100 0 -100 100 0 100 0 0 -50 0 -50 -50
0 -50 0 0 -50 0 -50 -50 0 -50 0 0 -100 0 -100 50 0 50 0 0 -50 0 -50 50 0 50
0 0 50 0 50 -50 0 -50 0 0 50 0 50 50 0 50 0 0 100 0 100 50 0 50 0 0 -50 0
-50 100 0 100 0 0 -100 0 -100 -50 0 -50 0 0 50 0 50 -50 0 -50 0 0 -100 0
-100 150 0 150 0 0 -50 0 -50 50 0 50 0 0 -50 0 -50 -100 0 -100 0 0 50 0 50
-100 0 -100 0 0 -50 0 -50 -50 0 -50 0 0 50 0 50 -50 0 -50 0 0 -50 0 -50 -50
0 -50 0 0 -50 0 -50 50 0 50 0 0 -50 0 -50 -50 0 -50 0 0 -50 0 -50 150 0 150
0 0 150 0 150 100 0 100 0 0 -100 0 -100 -50 0 -50 0 0 -50 0 -50 50 0 50 0 0
50 0 50 50 0 50 0 0 -50 0 -50 50 0 50 0 0 50 0 50 100 0 100 0 0 -50 0 -50
-50 0 -50 0 0 -50 0 -50 50 0 50 0 0 -50 0 -50 100 0 100 0 0 -100 0 -100 -50
0 -50 0 0 -100 0 -100 -50 0 -50 0 0 -100 0 -100 100 0 100 0 0 50 0 50 50 0
50 0 0 50 0 50 50 0 50 0 0 100 0 100 50 0 50 0 0 50 0 50 -50 0 -50 0 0 50 0
50 50 0 50 0 0 100 0 100 -50 0 -50 0 0 100 0 100 50 0 50 0 0 -50 0 -50 50 0
50 0 0 -100 0 -100 100 0 100 0 0 -50 0 -50 -50 0 -50 0 0 -50 0 -50 -50 0
-50 0 0 -50 0 -50 100 0 100 0 0 -50 0 -50 -50 0 -50 0 0 -100 0 -100 -50 0
-50 0 0 -50 0 -50 50 0 50 0 0 50 0 50 50 0 50 0 0 -50 0 -50 50 0 50 0 0 50
0 50 50 0 50 0 0 -50 0 -50 50 0 50 0 0 100 0 100 50 0 50 0 0 -50 0 -50 50 0
50 0 0 150 0 150 -50 0 -50 0 0 50 0 50 100 0 100 0 0 50 0 50 -100 0 -100 0
0 -50 0 -50 -100 0 -100 0 0 50 0 50 50 0 50 0 0 50 0 50 -50 0 -50 0 0 50 0
50 -50 0 -50 0 0 50 0 50 100 0 100 0 0 -50 0 -50 50 0 50 0 0 -50 0 -50 150
0 150 0 0 -50 0 -50 50 0 50 0 0 150 0 150 100 0 100 0 0 150 0 150 50 0 50 0
0 -50 0 -50 50 0 50 0 0 -100 0 -100 -50 0 -50 0 0 -50 0 -50 -100 0 -100 0 0
-50 0 -50 50 0 50 0 0 -50 0 -50 -50 0 -50 0 0 -50 0 -50 -100 0 -100 0 0 -50
0 -50 -50 0 -50 0 0 -50 0 -50 50 0 50 0 0 50 0 50 50 0 50 0 0 -200 0 -200
50 0 50 0 0 250 0 250 50 0 50 0 0 50 0 50 50 0 50 0 0 -100 0 -100 50 0 50 0
0 -50 0 -50 -100 0 -100 0 0 -100 0 -100 50 0 50 0 0 -50 0 -50 150 0 150 0 0
50 0 50 50 0 50 0 0 50 0 50 50 0 50 0 0 -50 0 -50 50 0 50 0 0 50 0 50 50 0
50 0 0 50 0 50 50 0 50 0 0 -50 0 -50 50 0 50 0 0 100 0 100 -50 0 -50 0 0 50
0 50 -50 0 -50 0 0 50 0 50 100 0 100 0 0 100 0 100 -50 0 -50 0 0 50 0 50 50
0 50 0 0 150 0 150 -50 0 -50 0 0 -150 0 -150 -200 0 -200 0 0 50 0 50 50 0
50 0 0 50 0 50 50 0 50 0 0 -50 0 -50 50 0 50 0 0 50 0 50 -50 0 -50 0 0 50 0
50 50 0 50 0 0 50 0 50 -50 0 -50 0 0 -50 0 -50 -50 0 -50 0 0 100 0 100 100
0 100 0 0 100 0 100 50 0 50 0 0 -150 0 -150 50 0 50 0 0 150 0 150 -50 0 -50
0 0 50 0 50 50 0 50 0 0 150 0 150 -50 0 -50 0 0 -50 0 -50 -50 0 -50 0 0 100
0 100 50 0 50 0 0 50 0 50 50 0 50 0 0 350 0 350 -100 0 -100 0 0 -100 0 -100
-50 0 -50 0 0 100 0 100 -150 0 -150 0 0 -50 0 -50 100 0 100 0 0 -50 0 -50
50 0 50 0 0 -50 0 -50 50 0 50 0 0 50 0 50 50 0 50 0 0 -150 0 -150 -50 0 -50
0 0 -50 0 -50 -50 0 -50 0 0 100 0 100 -50 0 -50 0 0 50 0 50 -100 0 -100 0 0
50 0 50 -50 0 -50 0 0 -50 0 -50 50 0 50 0 0 -50 0 -50 -50 0 -50 0 0 -100 0
-100 -100 0 -100 0 0 50 0 50 50 0 50 0 0 50 0 50 -50 0 -50 0 0 50 0 50 50 0
50 0 0 100 0 100 -50 0 -50 0 0 50 0 50 -50 0 -50 0 0 100 0 100 50 0 50 0 0
-50 0 -50 50 0 50 0 0 250 0 250 -50 0 -50 0 0 100 0 100 -100 0 -100 0 0 -50z
m-1500 -500 l0 -50 50 0 50 0 0 -50 0 -50 -50 0 -50 0 0 50 0 50 -50 0 -50 0
0 50 0 50 50 0 50 0 0 -50z m600 0 l0 -50 50 0 50 0 0 -50 0 -50 -50 0 -50 0
0 50 0 50 -50 0 -50 0 0 -50 0 -50 -50 0 -50 0 0 50 0 50 50 0 50 0 0 50 0 50
50 0 50 0 0 -50z m300 -50 l0 -100 50 0 50 0 0 50 0 50 50 0 50 0 0 -100 0
-100 -50 0 -50 0 0 -50 0 -50 -50 0 -50 0 0 50 0 50 -50 0 -50 0 0 150 0 150
50 0 50 0 0 -100z m700 50 l0 -50 -50 0 -50 0 0 -100 0 -100 -50 0 -50 0 0
100 0 100 -50 0 -50 0 0 -50 0 -50 -50 0 -50 0 0 100 0 100 200 0 200 0 0 -50z
m-1000 -300 l0 -50 100 0 100 0 0 -50 0 -50 -150 0 -150 0 0 50 0 50 -50 0
-50 0 0 50 0 50 100 0 100 0 0 -50z m700 -50 l0 -100 100 0 100 0 0 50 0 50
100 0 100 0 0 -100 0 -100 -50 0 -50 0 0 -150 0 -150 50 0 50 0 0 -50 0 -50
-50 0 -50 0 0 50 0 50 -50 0 -50 0 0 150 0 150 -50 0 -50 0 0 -50 0 -50 -100
0 -100 0 0 50 0 50 50 0 50 0 0 50 0 50 -50 0 -50 0 0 100 0 100 50 0 50 0 0
-100z m-600 -250 l0 -50 -50 0 -50 0 0 50 0 50 50 0 50 0 0 -50z m-300 -100
l0 -50 -50 0 -50 0 0 50 0 50 50 0 50 0 0 -50z m1700 0 l0 -50 50 0 50 0 0
-50 0 -50 -50 0 -50 0 0 50 0 50 -50 0 -50 0 0 50 0 50 50 0 50 0 0 -50z
m-3000 -150 l0 -100 50 0 50 0 0 50 0 50 50 0 50 0 0 -50 0 -50 -50 0 -50 0 0
-50 0 -50 -100 0 -100 0 0 150 0 150 50 0 50 0 0 -100z m1100 50 l0 -50 -50 0
-50 0 0 50 0 50 50 0 50 0 0 -50z m2300 -100 l0 -50 -50 0 -50 0 0 50 0 50 50
0 50 0 0 -50z m-1100 -100 l0 -50 100 0 100 0 0 -50 0 -50 -100 0 -100 0 0 50
0 50 -50 0 -50 0 0 50 0 50 50 0 50 0 0 -50z m400 -100 l0 -50 -50 0 -50 0 0
50 0 50 50 0 50 0 0 -50z m-2500 -150 l0 -100 -50 0 -50 0 0 50 0 50 -50 0
-50 0 0 50 0 50 100 0 100 0 0 -100z m3000 -150 l0 -50 50 0 50 0 0 50 0 50
50 0 50 0 0 -50 0 -50 -50 0 -50 0 0 -50 0 -50 -50 0 -50 0 0 -50 0 -50 -200
0 -200 0 0 50 0 50 150 0 150 0 0 100 0 100 50 0 50 0 0 -50z m-500 -200 l0
-50 -50 0 -50 0 0 -100 0 -100 50 0 50 0 0 50 0 50 150 0 150 0 0 -50 0 -50
-100 0 -100 0 0 -100 0 -100 100 0 100 0 0 50 0 50 50 0 50 0 0 -50 0 -50 -50
0 -50 0 0 -50 0 -50 -100 0 -100 0 0 50 0 50 -50 0 -50 0 0 50 0 50 -50 0 -50
0 0 50 0 50 -100 0 -100 0 0 50 0 50 -50 0 -50 0 0 50 0 50 50 0 50 0 0 50 0
50 150 0 150 0 0 -50z m-800 -350 l0 -100 50 0 50 0 0 -50 0 -50 50 0 50 0 0
50 0 50 50 0 50 0 0 -100 0 -100 -100 0 -100 0 0 -50 0 -50 -50 0 -50 0 0 50
0 50 -50 0 -50 0 0 50 0 50 50 0 50 0 0 50 0 50 -100 0 -100 0 0 -50 0 -50
-100 0 -100 0 0 -50 0 -50 -100 0 -100 0 0 150 0 150 50 0 50 0 0 -50 0 -50
50 0 50 0 0 50 0 50 50 0 50 0 0 50 0 50 150 0 150 0 0 -100z m200 50 l0 -50
-50 0 -50 0 0 50 0 50 50 0 50 0 0 -50z m-1400 -100 l0 -50 50 0 50 0 0 -50 0
-50 50 0 50 0 0 50 0 50 50 0 50 0 0 -100 0 -100 -150 0 -150 0 0 100 0 100
-50 0 -50 0 0 -50 0 -50 -50 0 -50 0 0 -50 0 -50 -50 0 -50 0 0 50 0 50 50 0
50 0 0 50 0 50 50 0 50 0 0 50 0 50 50 0 50 0 0 -50z m1700 -50 l0 -100 -50 0
-50 0 0 100 0 100 50 0 50 0 0 -100z m-2400 -50 l0 -50 -50 0 -50 0 0 50 0 50
50 0 50 0 0 -50z m1000 -300 l0 -50 50 0 50 0 0 -50 0 -50 -100 0 -100 0 0 50
0 50 -100 0 -100 0 0 50 0 50 150 0 150 0 0 -50z m600 0 l0 -50 50 0 50 0 0
-50 0 -50 -50 0 -50 0 0 -50 0 -50 50 0 50 0 0 -50 0 -50 -50 0 -50 0 0 50 0
50 -50 0 -50 0 0 50 0 50 50 0 50 0 0 50 0 50 -50 0 -50 0 0 50 0 50 50 0 50
0 0 -50z m1400 -100 l0 -150 -150 0 -150 0 0 150 0 150 150 0 150 0 0 -150z
m300 100 l0 -50 -50 0 -50 0 0 -100 0 -100 50 0 50 0 0 -50 0 -50 -50 0 -50 0
0 -100 0 -100 -50 0 -50 0 0 50 0 50 -50 0 -50 0 0 -50 0 -50 -50 0 -50 0 0
-50 0 -50 -100 0 -100 0 0 100 0 100 50 0 50 0 0 50 0 50 200 0 200 0 0 50 0
50 -50 0 -50 0 0 150 0 150 100 0 100 0 0 -50z m-2200 -300 l0 -50 -50 0 -50
0 0 50 0 50 50 0 50 0 0 -50z m600 -200 l0 -50 -100 0 -100 0 0 50 0 50 100 0
100 0 0 -50z"/>
<path d="M2900 1750 l0 -50 50 0 50 0 0 50 0 50 -50 0 -50 0 0 -50z"/>
<path d="M2100 1450 l0 -50 50 0 50 0 0 50 0 50 -50 0 -50 0 0 -50z"/>
<path d="M3300 950 l0 -50 50 0 50 0 0 50 0 50 -50 0 -50 0 0 -50z"/>
<path d="M3300 3650 l0 -350 350 0 350 0 0 350 0 350 -350 0 -350 0 0 -350z
m600 0 l0 -250 -250 0 -250 0 0 250 0 250 250 0 250 0 0 -250z"/>
<path d="M3500 3650 l0 -150 150 0 150 0 0 150 0 150 -150 0 -150 0 0 -150z"/>
<path d="M900 3150 l0 -50 50 0 50 0 0 50 0 50 -50 0 -50 0 0 -50z"/>
<path d="M1300 2950 l0 -150 -50 0 -50 0 0 100 0 100 -50 0 -50 0 0 -50 0 -50
-50 0 -50 0 0 50 0 50 -100 0 -100 0 0 -50 0 -50 100 0 100 0 0 -50 0 -50
-100 0 -100 0 0 -50 0 -50 250 0 250 0 0 50 0 50 50 0 50 0 0 150 0 150 -50 0
-50 0 0 -150z"/>
<path d="M1500 2950 l0 -50 50 0 50 0 0 50 0 50 -50 0 -50 0 0 -50z"/>
<path d="M1775 2581 c-11 -5 -29 -19 -40 -31 -19 -21 -20 -36 -20 -401 l0
-379 28 -27 27 -28 380 0 380 0 27 28 28 27 3 376 3 375 -35 35 -34 34 -364
-1 c-199 0 -372 -4 -383 -8z m337 -6 c27 -4 45 -11 42 -16 -3 -5 7 -9 23 -9
21 0 24 -3 14 -9 -12 -8 -8 -13 17 -28 18 -10 32 -21 32 -25 0 -5 10 -8 22 -8
36 0 98 -49 98 -77 0 -31 32 -28 40 4 4 16 9 20 19 13 12 -7 12 -11 2 -23 -10
-13 -9 -16 6 -21 10 -2 5 -4 -11 -3 -17 1 -31 -4 -34 -12 -4 -11 6 -13 47 -9
l51 5 0 -30 c0 -27 -2 -29 -29 -24 -47 10 -101 -3 -101 -23 0 -14 -6 -17 -22
-13 -13 3 -28 9 -33 14 -20 15 -103 20 -145 9 l-42 -11 4 -68 c3 -60 7 -72 41
-113 20 -25 37 -52 37 -60 0 -20 24 -30 39 -15 8 8 11 5 11 -12 0 -20 -3 -22
-27 -16 -16 3 -29 11 -31 16 -2 5 -20 9 -40 9 -19 0 -44 7 -54 17 -17 15 -18
15 -18 0 0 -10 -7 -17 -15 -17 -19 0 -19 19 0 40 26 29 30 85 8 117 -10 15
-25 41 -33 56 -13 27 -17 28 -65 24 -27 -2 -61 -8 -75 -12 -21 -6 -23 -5 -12
6 6 7 12 20 12 29 0 8 7 27 14 42 l15 28 -37 -30 c-21 -16 -44 -39 -52 -50 -8
-11 -18 -20 -22 -20 -12 0 -10 28 3 32 20 7 -3 38 -28 38 -20 0 -23 4 -18 20
4 13 1 22 -9 26 -9 4 -16 18 -16 33 0 16 3 21 8 14 5 -8 14 -3 27 17 11 17 23
30 28 30 4 0 7 9 7 20 0 10 7 23 17 28 9 6 14 16 10 25 -3 9 -1 18 6 20 7 3 3
8 -10 13 -27 11 210 18 279 9z m-295 -21 c-3 -3 -12 -4 -19 -1 -8 3 -5 6 6 6
11 1 17 -2 13 -5z m-70 -66 c-3 -8 -6 -5 -6 6 -1 11 2 17 5 13 3 -3 4 -12 1
-19z m817 -164 c4 -15 5 -29 1 -32 -3 -3 -5 2 -5 12 0 9 -7 19 -15 22 -19 8
-20 24 -1 24 8 0 17 -12 20 -26z m-164 -50 c0 -8 -5 -12 -10 -9 -6 4 -8 11 -5
16 9 14 15 11 15 -7z m50 -10 c0 -8 -5 -12 -10 -9 -6 4 -8 11 -5 16 9 14 15
11 15 -7z m69 -13 c15 -10 8 -41 -8 -41 -13 0 -32 35 -24 44 8 8 15 7 32 -3z
m54 -28 c7 -9 5 -13 -7 -13 -10 0 -15 4 -11 9 3 5 1 12 -5 16 -6 4 -7 11 -3
18 5 8 8 7 11 -3 3 -8 9 -21 15 -27z m-777 -28 c-3 -8 -13 -11 -25 -8 -27 7
-26 18 2 38 20 14 22 14 25 0 2 -9 1 -22 -2 -30z m554 -31 c0 -8 -9 -14 -20
-14 -22 0 -28 26 -7 33 16 6 27 -1 27 -19z m-610 -30 c0 -8 -5 -12 -10 -9 -6
4 -8 11 -5 16 9 14 15 11 15 -7z m774 -5 c-8 -14 -34 -10 -34 5 0 9 7 12 20 9
11 -3 17 -9 14 -14z m-194 -18 c0 -5 -7 -11 -14 -14 -10 -4 -13 -1 -9 9 6 15
23 19 23 5z m-472 -12 c-2 -6 -8 -10 -13 -10 -5 0 -11 4 -13 10 -2 6 4 11 13
11 9 0 15 -5 13 -11z m-84 -27 c2 -4 -7 -8 -22 -9 -24 -2 -24 -1 -7 7 11 5 21
9 22 9 1 1 4 -3 7 -7z m656 -112 c13 -8 13 -10 0 -14 -32 -11 -53 -11 -57 1
-3 9 7 16 37 22 3 0 12 -3 20 -9z"/>
<path d="M2191 2363 c1 -17 57 -52 93 -59 31 -5 38 -4 34 7 -2 8 -14 18 -26
24 -12 5 -22 15 -22 22 0 8 -14 13 -40 13 -22 0 -40 -3 -39 -7z"/>
<path d="M1100 2350 l0 -50 50 0 50 0 0 50 0 50 -50 0 -50 0 0 -50z"/>
<path d="M2640 2050 l0 -50 80 0 80 0 0 50 0 50 -80 0 -80 0 0 -50z"/>
<path d="M1200 1850 l0 -50 50 0 50 0 0 50 0 50 -50 0 -50 0 0 -50z"/>
<path d="M300 650 l0 -350 350 0 350 0 0 350 0 350 -350 0 -350 0 0 -350z
m600 0 l0 -250 -250 0 -250 0 0 250 0 250 250 0 250 0 0 -250z"/>
<path d="M500 650 l0 -150 150 0 150 0 0 150 0 150 -150 0 -150 0 0 -150z"/>
<path d="M1100 650 l0 -50 50 0 50 0 0 50 0 50 -50 0 -50 0 0 -50z"/>
<path d="M2600 450 l0 -50 50 0 50 0 0 50 0 50 -50 0 -50 0 0 -50z"/>
<path d="M1600 350 l0 -50 50 0 50 0 0 50 0 50 -50 0 -50 0 0 -50z"/>
<path d="M3800 350 l0 -50 100 0 100 0 0 50 0 50 -100 0 -100 0 0 -50z"/>
</g>
</svg>
